<svg width="207" height="24" viewBox="0 0 207 24" fill="none" xmlns="http://www.w3.org/2000/svg">
<path d="M0.896307 1.18182H6.58523L12.5938 15.8409H12.8494L18.858 1.18182H24.5469V23H20.0724V8.79901H19.8913L14.245 22.8935H11.1982L5.55185 8.74574H5.37074V23H0.896307V1.18182ZM35.7196 23.3196C34.0364 23.3196 32.5875 22.9787 31.373 22.2969C30.1657 21.608 29.2353 20.6349 28.5819 19.3778C27.9284 18.1136 27.6017 16.6186 27.6017 14.8928C27.6017 13.2095 27.9284 11.7322 28.5819 10.4609C29.2353 9.18963 30.155 8.19886 31.3411 7.48864C32.5343 6.77841 33.9334 6.4233 35.5385 6.4233C36.6181 6.4233 37.623 6.5973 38.5534 6.94531C39.4909 7.28622 40.3077 7.80114 41.0037 8.49006C41.7069 9.17898 42.2537 10.0455 42.6444 11.0895C43.035 12.1264 43.2303 13.3409 43.2303 14.733V15.9794H29.4128V13.1669H38.9583C38.9583 12.5135 38.8162 11.9347 38.5321 11.4304C38.248 10.9261 37.8539 10.532 37.3496 10.2479C36.8525 9.95668 36.2736 9.81108 35.6131 9.81108C34.9242 9.81108 34.3134 9.97088 33.7807 10.2905C33.2551 10.603 32.8432 11.0256 32.5449 11.5582C32.2466 12.0838 32.0939 12.6697 32.0868 13.3161V15.9901C32.0868 16.7997 32.236 17.4993 32.5343 18.0888C32.8397 18.6783 33.2694 19.1328 33.8233 19.4524C34.3773 19.772 35.0343 19.9318 35.7942 19.9318C36.2985 19.9318 36.7601 19.8608 37.1792 19.7188C37.5982 19.5767 37.9569 19.3636 38.2551 19.0795C38.5534 18.7955 38.7807 18.4474 38.937 18.0355L43.1344 18.3125C42.9213 19.321 42.4846 20.2017 41.824 20.9545C41.1706 21.7003 40.3255 22.2827 39.2885 22.7017C38.2587 23.1136 37.0691 23.3196 35.7196 23.3196ZM52.2218 23.2663C50.9789 23.2663 49.8532 22.9467 48.8446 22.3075C47.8432 21.6612 47.0478 20.7131 46.4583 19.4631C45.8759 18.206 45.5847 16.6648 45.5847 14.8395C45.5847 12.9645 45.8865 11.4055 46.4902 10.1626C47.0939 8.91264 47.8965 7.97869 48.8979 7.3608C49.9064 6.7358 51.0108 6.4233 52.2111 6.4233C53.1273 6.4233 53.8908 6.57955 54.5016 6.89205C55.1195 7.19744 55.6167 7.58097 55.9931 8.04261C56.3766 8.49716 56.6678 8.9446 56.8667 9.38494H57.0051V1.18182H61.5328V23H57.0584V20.3793H56.8667C56.6536 20.8338 56.3517 21.2848 55.9611 21.7322C55.5776 22.1726 55.0769 22.5384 54.459 22.8295C53.8482 23.1207 53.1025 23.2663 52.2218 23.2663ZM53.66 19.6548C54.3915 19.6548 55.0094 19.456 55.5137 19.0582C56.025 18.6534 56.4157 18.0888 56.6855 17.3643C56.9625 16.6399 57.101 15.7912 57.101 14.8182C57.101 13.8452 56.9661 13 56.6962 12.2827C56.4263 11.5653 56.0357 11.0114 55.5243 10.6207C55.013 10.2301 54.3915 10.0348 53.66 10.0348C52.9142 10.0348 52.2857 10.2372 51.7743 10.642C51.263 11.0469 50.8759 11.608 50.6131 12.3253C50.3503 13.0426 50.2189 13.8736 50.2189 14.8182C50.2189 15.7699 50.3503 16.6115 50.6131 17.343C50.883 18.0675 51.2701 18.6357 51.7743 19.0476C52.2857 19.4524 52.9142 19.6548 53.66 19.6548ZM84.6001 8.82031H79.9339C79.8487 8.21662 79.6747 7.6804 79.4119 7.21165C79.1491 6.73579 78.8118 6.33097 78.3999 5.99716C77.9879 5.66335 77.5121 5.40767 76.9723 5.23011C76.4396 5.05256 75.8608 4.96378 75.2358 4.96378C74.1065 4.96378 73.1229 5.24432 72.2848 5.8054C71.4467 6.35937 70.7969 7.16903 70.3352 8.23438C69.8736 9.29261 69.6428 10.5781 69.6428 12.0909C69.6428 13.6463 69.8736 14.9531 70.3352 16.0114C70.804 17.0696 71.4574 17.8686 72.2955 18.4084C73.1335 18.9482 74.103 19.218 75.2038 19.218C75.8217 19.218 76.3935 19.1364 76.919 18.973C77.4517 18.8097 77.924 18.5717 78.3359 18.2592C78.7479 17.9396 79.0888 17.5526 79.3587 17.098C79.6357 16.6435 79.8274 16.125 79.9339 15.5426L84.6001 15.5639C84.4794 16.5653 84.1776 17.5312 83.6946 18.4616C83.2188 19.3849 82.576 20.2124 81.7663 20.9439C80.9638 21.6683 80.005 22.2436 78.8899 22.6697C77.782 23.0888 76.5284 23.2983 75.1293 23.2983C73.1832 23.2983 71.4432 22.858 69.9091 21.9773C68.3821 21.0966 67.1747 19.8217 66.2869 18.1527C65.4062 16.4837 64.9659 14.4631 64.9659 12.0909C64.9659 9.71165 65.4134 7.6875 66.3082 6.01847C67.2031 4.34943 68.4176 3.07812 69.9517 2.20455C71.4858 1.32386 73.2116 0.883522 75.1293 0.883522C76.3935 0.883522 77.5653 1.06108 78.6449 1.41619C79.7315 1.77131 80.6939 2.28977 81.532 2.97159C82.37 3.64631 83.0518 4.47372 83.5774 5.45383C84.1101 6.43395 84.451 7.55611 84.6001 8.82031ZM95.2163 23.3196C93.5614 23.3196 92.1303 22.968 90.9229 22.2649C89.7227 21.5547 88.7958 20.5675 88.1424 19.3033C87.489 18.032 87.1623 16.5582 87.1623 14.8821C87.1623 13.1918 87.489 11.7145 88.1424 10.4503C88.7958 9.17898 89.7227 8.19176 90.9229 7.48864C92.1303 6.77841 93.5614 6.4233 95.2163 6.4233C96.8711 6.4233 98.2987 6.77841 99.4989 7.48864C100.706 8.19176 101.637 9.17898 102.29 10.4503C102.944 11.7145 103.27 13.1918 103.27 14.8821C103.27 16.5582 102.944 18.032 102.29 19.3033C101.637 20.5675 100.706 21.5547 99.4989 22.2649C98.2987 22.968 96.8711 23.3196 95.2163 23.3196ZM95.2376 19.804C95.9904 19.804 96.619 19.5909 97.1232 19.1648C97.6275 18.7315 98.0075 18.142 98.2631 17.3963C98.5259 16.6506 98.6573 15.8018 98.6573 14.8501C98.6573 13.8984 98.5259 13.0497 98.2631 12.304C98.0075 11.5582 97.6275 10.9687 97.1232 10.5355C96.619 10.1023 95.9904 9.88565 95.2376 9.88565C94.4776 9.88565 93.8384 10.1023 93.32 10.5355C92.8086 10.9687 92.4215 11.5582 92.1587 12.304C91.9031 13.0497 91.7752 13.8984 91.7752 14.8501C91.7752 15.8018 91.9031 16.6506 92.1587 17.3963C92.4215 18.142 92.8086 18.7315 93.32 19.1648C93.8384 19.5909 94.4776 19.804 95.2376 19.804ZM110.76 13.5398V23H106.221V6.63636H110.547V9.52344H110.738C111.1 8.57173 111.708 7.81889 112.56 7.26491C113.412 6.70384 114.446 6.4233 115.66 6.4233C116.797 6.4233 117.787 6.67187 118.632 7.16903C119.478 7.66619 120.135 8.37642 120.603 9.29972C121.072 10.2159 121.306 11.3097 121.306 12.581V23H116.768V13.3906C116.775 12.3892 116.52 11.608 116.001 11.0469C115.483 10.4787 114.769 10.1946 113.86 10.1946C113.249 10.1946 112.709 10.326 112.24 10.5888C111.779 10.8516 111.417 11.2351 111.154 11.7393C110.898 12.2365 110.767 12.8366 110.76 13.5398ZM129.422 13.5398V23H124.883V6.63636H129.209V9.52344H129.4C129.763 8.57173 130.37 7.81889 131.222 7.26491C132.074 6.70384 133.108 6.4233 134.322 6.4233C135.459 6.4233 136.449 6.67187 137.295 7.16903C138.14 7.66619 138.797 8.37642 139.265 9.29972C139.734 10.2159 139.969 11.3097 139.969 12.581V23H135.43V13.3906C135.437 12.3892 135.182 11.608 134.663 11.0469C134.145 10.4787 133.431 10.1946 132.522 10.1946C131.911 10.1946 131.371 10.326 130.903 10.5888C130.441 10.8516 130.079 11.2351 129.816 11.7393C129.56 12.2365 129.429 12.8366 129.422 13.5398ZM151.003 23.3196C149.32 23.3196 147.871 22.9787 146.656 22.2969C145.449 21.608 144.518 20.6349 143.865 19.3778C143.212 18.1136 142.885 16.6186 142.885 14.8928C142.885 13.2095 143.212 11.7322 143.865 10.4609C144.518 9.18963 145.438 8.19886 146.624 7.48864C147.817 6.77841 149.217 6.4233 150.822 6.4233C151.901 6.4233 152.906 6.5973 153.837 6.94531C154.774 7.28622 155.591 7.80114 156.287 8.49006C156.99 9.17898 157.537 10.0455 157.928 11.0895C158.318 12.1264 158.513 13.3409 158.513 14.733V15.9794H144.696V13.1669H154.241C154.241 12.5135 154.099 11.9347 153.815 11.4304C153.531 10.9261 153.137 10.532 152.633 10.2479C152.136 9.95668 151.557 9.81108 150.896 9.81108C150.207 9.81108 149.597 9.97088 149.064 10.2905C148.538 10.603 148.126 11.0256 147.828 11.5582C147.53 12.0838 147.377 12.6697 147.37 13.3161V15.9901C147.37 16.7997 147.519 17.4993 147.817 18.0888C148.123 18.6783 148.553 19.1328 149.107 19.4524C149.661 19.772 150.317 19.9318 151.077 19.9318C151.582 19.9318 152.043 19.8608 152.462 19.7188C152.881 19.5767 153.24 19.3636 153.538 19.0795C153.837 18.7955 154.064 18.4474 154.22 18.0355L158.418 18.3125C158.205 19.321 157.768 20.2017 157.107 20.9545C156.454 21.7003 155.609 22.2827 154.572 22.7017C153.542 23.1136 152.352 23.3196 151.003 23.3196ZM168.869 23.3196C167.192 23.3196 165.751 22.9645 164.543 22.2543C163.343 21.5369 162.42 20.5426 161.773 19.2713C161.134 18 160.815 16.5369 160.815 14.8821C160.815 13.206 161.138 11.7358 161.784 10.4716C162.438 9.20028 163.364 8.20952 164.565 7.49929C165.765 6.78196 167.192 6.4233 168.847 6.4233C170.275 6.4233 171.525 6.68253 172.597 7.20099C173.67 7.71946 174.518 8.44744 175.143 9.38494C175.768 10.3224 176.113 11.4233 176.177 12.6875H171.894C171.773 11.8707 171.454 11.2138 170.935 10.7166C170.424 10.2124 169.753 9.96023 168.922 9.96023C168.219 9.96023 167.604 10.152 167.079 10.5355C166.56 10.9119 166.156 11.4624 165.864 12.1868C165.573 12.9112 165.428 13.7884 165.428 14.8182C165.428 15.8622 165.57 16.75 165.854 17.4815C166.145 18.2131 166.553 18.7706 167.079 19.1541C167.604 19.5376 168.219 19.7294 168.922 19.7294C169.44 19.7294 169.906 19.6229 170.317 19.4098C170.737 19.1967 171.081 18.8878 171.351 18.483C171.628 18.071 171.809 17.5774 171.894 17.0021H176.177C176.106 18.2521 175.765 19.353 175.154 20.3047C174.55 21.2493 173.716 21.9879 172.651 22.5206C171.585 23.0533 170.325 23.3196 168.869 23.3196ZM187.786 6.63636V10.0455H177.932V6.63636H187.786ZM180.169 2.71591H184.708V17.9716C184.708 18.3906 184.771 18.7173 184.899 18.9517C185.027 19.179 185.205 19.3388 185.432 19.4311C185.666 19.5234 185.936 19.5696 186.242 19.5696C186.455 19.5696 186.668 19.5518 186.881 19.5163C187.094 19.4737 187.257 19.4418 187.371 19.4205L188.085 22.7976C187.857 22.8686 187.538 22.9503 187.126 23.0426C186.714 23.142 186.213 23.2024 185.624 23.2237C184.53 23.2663 183.571 23.1207 182.747 22.7869C181.931 22.4531 181.295 21.9347 180.84 21.2315C180.386 20.5284 180.162 19.6406 180.169 18.5682V2.71591ZM196.722 21.8175V6.73224H200.536V21.8175H196.722ZM191.086 16.1818V12.3679H206.172V16.1818H191.086Z" fill="#0B8FAC"/>
</svg>
